<svg width="16" height="16" viewBox="0 0 16 16" fill="none" xmlns="http://www.w3.org/2000/svg">
<path d="M7.5 0.288675C7.8094 0.110042 8.1906 0.110042 8.5 0.288675L14.4282 3.71132C14.7376 3.88996 14.9282 4.22008 14.9282 4.57735V11.4226C14.9282 11.7799 14.7376 12.11 14.4282 12.2887L8.5 15.7113C8.1906 15.89 7.8094 15.89 7.5 15.7113L1.5718 12.2887C1.2624 12.11 1.0718 11.7799 1.0718 11.4226V4.57735C1.0718 4.22008 1.2624 3.88996 1.5718 3.71132L7.5 0.288675Z" fill="#151515"/>
<path d="M14.2444 3.63269L8.69477 0.449565C8.4851 0.329543 8.24731 0.266357 8.00526 0.266357C7.76321 0.266357 7.52543 0.329543 7.31575 0.449565L1.76616 3.63269C1.55672 3.75294 1.38275 3.92565 1.26165 4.13355C1.14056 4.34145 1.07658 4.57726 1.07611 4.8174V11.1826C1.07672 11.4229 1.14074 11.6587 1.26181 11.8668C1.38288 12.0748 1.55678 12.2478 1.76616 12.3683L7.31575 15.5515C7.5257 15.6707 7.76338 15.7334 8.00526 15.7334C8.24714 15.7334 8.48482 15.6707 8.69477 15.5515L14.2444 12.3683C14.4536 12.2477 14.6274 12.0747 14.7483 11.8667C14.8691 11.6586 14.933 11.4228 14.9334 11.1826V4.8174C14.9331 4.57734 14.8693 4.34156 14.7484 4.13365C14.6275 3.92574 14.4537 3.75299 14.2444 3.63269ZM7.41522 0.629348C7.59316 0.527871 7.7948 0.474467 8.00002 0.474467C8.20525 0.474467 8.40688 0.527871 8.58482 0.629348L10.1691 1.53762C10.2309 1.74547 10.2895 1.95331 10.3429 2.15388C9.46696 2.65698 8.6579 3.26689 7.93458 3.96939C7.21152 3.26658 6.40242 2.65664 5.52626 2.15388C5.57233 1.97514 5.62261 1.79743 5.67392 1.62389L7.41522 0.629348ZM14.7239 5.814C14.4276 5.72047 14.1376 5.63733 13.858 5.56563C14.103 5.14994 14.3407 4.70619 14.5669 4.23647C14.6698 4.41305 14.7239 4.61342 14.7239 4.8174V5.814ZM14.7239 10.132C14.4622 10.2151 14.2004 10.2899 13.9543 10.3554C13.8496 10.1642 13.7449 9.97503 13.6402 9.78693C13.4392 9.45438 13.2266 9.12807 12.992 8.81526C12.756 8.50225 12.5022 8.20282 12.2319 7.91842C12.2078 7.89244 12.1816 7.8675 12.1565 7.84256C12.7982 7.16456 13.3603 6.41637 13.8318 5.61239C14.1198 5.68617 14.4203 5.77244 14.726 5.86908L14.7239 10.132ZM14.5763 11.7448L14.525 11.6097C14.4904 11.5193 14.4538 11.431 14.4203 11.3416C14.347 11.1628 14.2684 10.9872 14.1857 10.8126C14.1208 10.6744 14.0527 10.5383 13.9763 10.4032C14.2182 10.3388 14.4685 10.266 14.7218 10.187V11.1826C14.7229 11.381 14.6728 11.5763 14.5763 11.75V11.7448ZM1.27822 10.2244C1.52743 10.3013 1.75358 10.3658 1.963 10.4198C1.7473 10.8154 1.5501 11.22 1.3714 11.6336C1.30984 11.4911 1.27814 11.3377 1.27822 11.1826V10.2244ZM1.27822 5.83063C1.56198 5.74334 1.81641 5.67162 2.04991 5.61239C2.53209 6.4392 3.11095 7.2066 3.77447 7.89867C3.24547 8.45071 2.77691 9.05685 2.37662 9.70691C2.2405 9.92618 2.11273 10.1496 1.98917 10.3741C1.77243 10.319 1.5379 10.2525 1.27822 10.1725V5.83063ZM5.06765 5.19982C5.06852 5.70873 5.12043 6.2163 5.22261 6.71501C4.70601 7.03625 4.23185 7.42027 3.81113 7.85815C3.15383 7.17475 2.58055 6.41636 2.10332 5.59889C3.07073 5.34733 4.06555 5.21435 5.06555 5.20294L5.06765 5.19982ZM5.52207 2.20688C6.3886 2.70551 7.18856 3.31021 7.90316 4.0068C7.49662 4.41064 7.13761 4.85899 6.83303 5.34323C6.2713 5.21403 5.69662 5.14849 5.12 5.14786C5.13056 4.15491 5.26489 3.16708 5.51997 2.20688H5.52207ZM10.3586 2.20688C10.6149 3.1669 10.7499 4.15479 10.7607 5.14786C10.1839 5.14826 9.60915 5.21452 9.04765 5.34531C8.74341 4.86019 8.38438 4.41112 7.97752 4.0068C8.69148 3.31035 9.49073 2.70565 10.3565 2.20688H10.3586ZM10.8277 5.19982C11.8244 5.2119 12.8158 5.34594 13.7795 5.59889C13.3124 6.39388 12.7563 7.13398 12.1219 7.80515C11.6892 7.36296 11.2003 6.97867 10.6675 6.66201C10.7632 6.17898 10.8119 5.68795 10.813 5.19567L10.8277 5.19982ZM10.813 10.8002C10.8125 10.2282 10.7464 9.65819 10.6162 9.10105C11.042 8.83906 11.4399 8.53473 11.8036 8.19277L11.879 8.26551C12.1481 8.52648 12.4026 8.80195 12.6413 9.09066C12.8831 9.37852 13.1156 9.67573 13.3344 9.98438C13.4392 10.1319 13.5439 10.2816 13.6486 10.4333C12.7209 10.668 11.7682 10.7911 10.8109 10.8002H10.813ZM10.3942 13.8742C10.5335 13.9563 10.6696 14.0321 10.8005 14.1038L10.2392 14.425C10.2916 14.2369 10.3439 14.0519 10.39 13.8742H10.3942ZM10.3607 13.7942C9.49427 13.2946 8.69434 12.6892 7.97962 11.9921C8.38633 11.5886 8.74471 11.1398 9.04765 10.6547C9.60966 10.7866 10.1853 10.8529 10.7628 10.8521C10.7507 11.8457 10.6143 12.834 10.3565 13.7942H10.3607ZM5.52416 13.7942C5.26838 12.8337 5.13334 11.8455 5.1221 10.8521C5.69961 10.8528 6.27521 10.7865 6.83722 10.6547C7.1402 11.1398 7.49858 11.5886 7.90526 11.9921C7.18962 12.6899 6.3882 13.2954 5.51997 13.7942H5.52416ZM2.17346 10.4177C2.69812 9.58882 3.31991 8.82451 4.02579 8.14081C4.40535 8.50288 4.82189 8.82469 5.26868 9.10105C5.13838 9.65853 5.07235 10.2289 5.07184 10.8012C4.09159 10.7901 3.11629 10.6614 2.1672 10.4177H2.17346ZM6.36813 9.56765C6.28976 9.35226 6.22781 9.13132 6.18279 8.90671C6.27789 9.09354 6.40112 9.2649 6.54823 9.41489C6.67022 9.53708 6.80664 9.6442 6.95451 9.73393C6.75348 9.69152 6.55548 9.63598 6.36184 9.56765H6.36813ZM7.0414 6.45831C7.09166 6.44896 7.14613 6.43858 7.19325 6.43026C7.28644 6.41675 7.37438 6.40843 7.46548 6.397C7.55658 6.38557 7.64769 6.38661 7.73878 6.38037C7.82988 6.37414 7.92096 6.36999 8.01206 6.37414C8.30809 6.38328 8.6026 6.42016 8.89164 6.48429C9.01449 6.56063 9.12738 6.65173 9.22775 6.75553C9.38448 6.91933 9.50722 7.11214 9.58899 7.32295C9.66701 7.53262 9.70774 7.75414 9.7094 7.97765C9.7208 8.43337 9.54989 8.87503 9.23404 9.20601C9.07252 9.37553 8.87863 9.51148 8.66368 9.60594C8.44873 9.7004 8.217 9.75148 7.98197 9.75621C7.74694 9.76095 7.5133 9.71926 7.29466 9.63354C7.07603 9.54783 6.87675 9.4198 6.70843 9.25693C6.50998 9.06781 6.3584 8.83561 6.26559 8.57856C6.17278 8.32151 6.14127 8.0466 6.17354 7.77542C6.2058 7.50425 6.30096 7.24419 6.45154 7.01566C6.60213 6.78713 6.80402 6.59635 7.0414 6.45831V6.45831ZM10.1544 7.95063L10.1795 8.00052C10.1701 8.02026 10.1586 8.04 10.1492 8.06079C10.1492 8.03273 10.1492 8.00571 10.1492 7.97765L10.1544 7.95063ZM6.054 8.59703C5.92535 8.40675 5.81091 8.20738 5.7116 8.00052C5.80312 7.80715 5.90808 7.62033 6.02573 7.44142C5.97768 7.61617 5.95339 7.7965 5.95348 7.97765C5.95388 8.18759 5.98563 8.39633 6.04771 8.59703H6.054ZM9.49686 9.46685C9.52932 9.43568 9.55863 9.40242 9.58899 9.3702C9.56805 9.43567 9.54607 9.50218 9.52304 9.56765C9.43927 9.59779 9.35549 9.62377 9.27172 9.64872C9.34885 9.5921 9.42198 9.53029 9.49057 9.46373L9.49686 9.46685ZM9.66962 9.27979C9.92471 8.96934 10.0872 8.59425 10.1387 8.19693L10.2068 8.06287C10.356 8.38903 10.4745 8.72823 10.5607 9.07611C10.2518 9.2633 9.92532 9.42026 9.58585 9.54479C9.60993 9.45542 9.6382 9.36708 9.66333 9.27979H9.66962ZM10.2068 7.93816L10.1492 7.82593C10.1169 7.44129 9.97814 7.073 9.74815 6.76177C9.87171 6.81477 9.99317 6.86569 10.1125 6.93324C10.2319 7.00079 10.3722 7.07665 10.4979 7.15564C10.4182 7.42336 10.3188 7.6849 10.2005 7.93816H10.2068ZM6.20163 7.00286C6.22676 6.89894 6.25504 6.78359 6.28855 6.67136C6.35347 6.64745 6.4184 6.62459 6.48332 6.6038C6.37192 6.72479 6.27527 6.8584 6.19537 7.00183L6.20163 7.00286ZM6.11055 7.19513C6.10008 7.22007 6.0917 7.24709 6.08227 7.27307C5.93126 7.48378 5.79817 7.70658 5.68437 7.9392C5.56016 7.67054 5.45758 7.39255 5.37758 7.10782C5.54108 7.01025 5.70954 6.92111 5.88229 6.84075C5.99537 6.78775 6.11158 6.73683 6.22781 6.69526C6.17724 6.8591 6.13599 7.02564 6.10426 7.19409L6.11055 7.19513ZM5.68437 8.06287C5.80365 8.30577 5.94378 8.53802 6.10321 8.75706C6.15001 9.02547 6.22008 9.28938 6.31263 9.54583C5.9724 9.42151 5.64522 9.26453 5.33571 9.07715C5.41698 8.72865 5.53161 8.38866 5.67808 8.06183L5.68437 8.06287ZM5.31579 9.13015C5.63564 9.32362 5.97458 9.48414 6.3273 9.60922C6.45394 9.9579 6.61601 10.2929 6.81105 10.609C6.25803 10.7369 5.69204 10.8014 5.12419 10.8012C5.12258 10.2387 5.18475 9.67781 5.30953 9.12911L5.31579 9.13015ZM6.8634 10.5965C6.67453 10.2913 6.51669 9.96825 6.39221 9.63208C6.62294 9.7117 6.85961 9.77321 7.10005 9.81603C7.13565 9.83473 7.1702 9.85344 7.20476 9.87007L7.277 9.89709C7.46937 10.0279 7.67132 10.1443 7.88117 10.2452C7.5524 10.3955 7.20935 10.5128 6.85711 10.5954L6.8634 10.5965ZM7.47701 9.96256C7.64736 10.0113 7.82331 10.0382 8.00056 10.0426C8.10737 10.0443 8.21416 10.0377 8.31993 10.0228C8.19951 10.0935 8.07595 10.159 7.94925 10.2182C7.78479 10.1421 7.625 10.0564 7.47072 9.96152L7.47701 9.96256ZM8.44977 10.0021C8.68898 9.95592 8.91824 9.86869 9.12723 9.74432C9.25184 9.7121 9.37642 9.67365 9.49893 9.63208C9.372 9.96775 9.2132 10.2907 9.02462 10.5965C8.67515 10.512 8.33465 10.3944 8.00787 10.2452C8.15737 10.1716 8.3028 10.0901 8.44348 10.001L8.44977 10.0021ZM9.56386 9.60922C9.91584 9.48396 10.254 9.32344 10.5732 9.13015C10.6996 9.67836 10.7638 10.2388 10.7649 10.8012C10.197 10.8015 9.63103 10.737 9.07802 10.609C9.27032 10.2917 9.43092 9.95647 9.55757 9.60818L9.56386 9.60922ZM10.611 9.04909C10.5214 8.68895 10.3973 8.33817 10.2403 8.00156C10.3637 7.73748 10.4667 7.4644 10.5481 7.18472C10.9886 7.46738 11.3994 7.79326 11.7743 8.15744C11.414 8.49249 11.0207 8.79085 10.6005 9.04805L10.611 9.04909ZM10.3523 6.48637C10.173 6.39438 9.98882 6.31216 9.80051 6.24008C9.68847 6.19747 9.57538 6.15902 9.4602 6.12265C9.35289 5.87141 9.22724 5.62829 9.08428 5.3952C9.6367 5.26781 10.2019 5.20331 10.7691 5.20294C10.7677 5.68537 10.7204 6.16659 10.6277 6.64017C10.5324 6.58406 10.435 6.53418 10.3418 6.48533L10.3523 6.48637ZM9.02043 5.41079C9.15799 5.63405 9.2794 5.86672 9.38377 6.10706C9.32827 6.09043 9.27276 6.07172 9.21517 6.05718C8.90672 5.97671 8.5911 5.92625 8.27279 5.90649C8.18274 5.85557 8.08956 5.80257 7.99637 5.761C8.32524 5.61102 8.66827 5.49371 9.02043 5.41079V5.41079ZM8.16389 5.90233C8.11362 5.90233 8.05918 5.90233 8.01416 5.90233C7.90945 5.90233 7.81208 5.91169 7.71051 5.9148H7.70003C7.77856 5.8722 7.85814 5.83063 7.93877 5.79218C8.0194 5.8192 8.08954 5.85765 8.16389 5.89714V5.90233ZM7.58067 5.91792C7.52275 5.91934 7.465 5.9249 7.40789 5.93456C7.30841 5.9491 7.20476 5.96053 7.10738 5.97715C7.01 5.99378 6.90948 6.01562 6.8121 6.03952C6.71472 6.06342 6.59012 6.09874 6.48018 6.13304C6.58826 5.88235 6.71349 5.6393 6.85502 5.40558C7.20623 5.49033 7.54846 5.6083 7.87698 5.75788C7.77646 5.80465 7.677 5.85661 7.58067 5.91272V5.91792ZM6.41315 6.15591C6.16136 6.23703 5.9163 6.33744 5.68018 6.45624C5.53778 6.53003 5.39956 6.609 5.26134 6.6911C5.16254 6.20179 5.11239 5.70405 5.11162 5.20502C5.67865 5.20588 6.24381 5.27002 6.7964 5.39624C6.65018 5.63805 6.52207 5.89023 6.41315 6.15071V6.15591ZM5.32523 7.139C5.4082 7.43632 5.51609 7.72623 5.64774 8.00571C5.4894 8.34189 5.36488 8.69278 5.27602 9.05325C4.83796 8.78138 4.42949 8.46515 4.05718 8.10963C4.44343 7.74023 4.86856 7.41308 5.32523 7.1338V7.139ZM6.88644 10.6474C7.24886 10.5605 7.60145 10.4372 7.93877 10.2795C8.27462 10.4361 8.6254 10.559 8.98586 10.6464C8.68739 11.1234 8.33425 11.5645 7.93353 11.961C7.5354 11.5621 7.18412 11.1197 6.88644 10.6422V10.6474ZM8.99215 5.36403C8.62939 5.45097 8.27645 5.57422 7.93877 5.7319C7.60037 5.57457 7.24718 5.45066 6.88434 5.36195C7.1847 4.88626 7.53806 4.44563 7.93772 4.04837C8.33776 4.44443 8.69148 4.88402 8.99215 5.35883V5.36403ZM1.27612 5.77971V4.82051C1.27613 4.6639 1.30856 4.50897 1.3714 4.36533C1.58082 4.79037 1.79651 5.19671 2.02059 5.56875C1.79442 5.61863 1.54837 5.69242 1.27612 5.77659V5.77971ZM2.13788 10.4666C3.09552 10.7145 4.08011 10.8454 5.06974 10.8563C5.08084 11.8589 5.21766 12.8563 5.47705 13.8253C5.36396 13.8929 5.23937 13.9625 5.09487 14.0415L1.86562 12.1917C1.66842 12.078 1.5093 11.9092 1.40806 11.7064C1.63214 11.2813 1.8782 10.8667 2.13788 10.4635V10.4666ZM5.48858 13.8783C5.52523 14.0228 5.56816 14.1755 5.61632 14.3418L5.14513 14.0716C5.27183 13.9989 5.38387 13.9324 5.48648 13.8752L5.48858 13.8783ZM5.53569 13.8503C6.41257 13.3473 7.22177 12.7363 7.94401 12.0316C8.66714 12.7352 9.47621 13.3462 10.3523 13.8503C10.3021 14.0488 10.2476 14.2556 10.1795 14.4665L8.59425 15.3738C8.41635 15.4753 8.2147 15.5288 8.00945 15.5288C7.80421 15.5288 7.60256 15.4753 7.42466 15.3738L5.68961 14.3792C5.62365 14.1849 5.57548 14.0103 5.5336 13.8472L5.53569 13.8503ZM10.8507 14.0768C10.7083 13.9989 10.5586 13.9147 10.4057 13.8253C10.6652 12.8563 10.802 11.8589 10.813 10.8563H10.8277C11.7898 10.8454 12.7471 10.7198 13.6789 10.4822C13.7795 10.6304 13.8782 10.7797 13.9753 10.9301L14.28 11.4143L14.4297 11.6596L14.5051 11.7822C14.5145 11.7989 14.5229 11.8113 14.5313 11.8238C14.4317 11.9746 14.2984 12.1005 14.1418 12.1917L10.8507 14.0768ZM13.8067 5.55524C12.8345 5.2977 11.8338 5.16155 10.8277 5.14994H10.813C10.802 4.14731 10.6652 3.14996 10.4057 2.1809C10.5492 2.09673 10.6989 2.01255 10.8518 1.92941L14.1418 3.81455C14.3008 3.90677 14.4357 4.03495 14.5355 4.18867C14.302 4.66982 14.0569 5.12916 13.8046 5.55316L13.8067 5.55524ZM10.3921 2.12582C10.3439 1.94188 10.2874 1.75793 10.2371 1.57399L10.7994 1.89616C10.6581 1.97306 10.5209 2.04996 10.39 2.12686L10.3921 2.12582ZM5.48858 2.12582C5.38387 2.06555 5.26764 1.99904 5.14618 1.93149L5.61737 1.6613C5.5713 1.81406 5.52732 1.96994 5.48648 2.12582H5.48858ZM5.09382 1.96163C5.22995 2.03645 5.35977 2.11127 5.47495 2.17882C5.21556 3.14789 5.07875 4.14524 5.06765 5.14786C4.05707 5.1597 3.05187 5.29584 2.07504 5.55316C1.84259 5.16553 1.61747 4.74569 1.40282 4.3061C1.50385 4.10078 1.66424 3.93001 1.86353 3.81559L5.09382 1.96163Z" fill="url(#paint0_linear_637_164)"/>
<defs>
<linearGradient id="paint0_linear_637_164" x1="8.00474" y1="0.266357" x2="8.00474" y2="15.7334" gradientUnits="userSpaceOnUse">
<stop stop-color="#E0BDFF"/>
<stop offset="1" stop-color="#8660C2"/>
</linearGradient>
</defs>
</svg>
